name analog
datacolumns 19
datarows 46
range 0.3325 0.355
endheader
time	ground_force_vx	ground_force_vy	ground_force_vz	ground_force_px	ground_force_py	ground_force_pz	l_ground_force_vx	l_ground_force_vy	l_ground_force_vz	l_ground_force_px	l_ground_force_py	l_ground_force_pz	ground_torque_x	ground_torque_y	ground_torque_z	l_ground_torque_x	l_ground_torque_y	l_ground_torque_z
0.3325	-0.0	-0.0	-0.0	-0.0	-0.0	-0.0	0.0574418865144252	-0.1003901213407516	-756.262451171875	-0.0	-0.0	-0.0	-0.0	-0.0	-0.0	267686.28125	-20622.44140625	-1919.395263671875
0.333	-0.0	-0.0	-0.0	-0.0	-0.0	-0.0	3.257476329803467	-0.4539653658866882	-757.2347412109375	-0.0	-0.0	-0.0	-0.0	-0.0	-0.0	267008.90625	-21965.671875	-707.5073852539062
0.3335	-0.0	-0.0	-0.0	-0.0	-0.0	-0.0	6.919441223144531	-1.5393561124801636	-755.8383178710938	-0.0	-0.0	-0.0	-0.0	-0.0	-0.0	266393.5625	-22835.58984375	907.1763305664062
0.334	-0.0	-0.0	-0.0	-0.0	-0.0	-0.0	9.745305061340332	-2.693448781967163	-755.265625	-0.0	-0.0	-0.0	-0.0	-0.0	-0.0	265891.125	-23659.8671875	2065.74365234375
0.3345	-0.0	-0.0	-0.0	-0.0	-0.0	-0.0	11.645771026611328	-4.37846040725708	-755.7644653320312	-0.0	-0.0	-0.0	-0.0	-0.0	-0.0	265452.15625	-24074.177734375	3115.576171875
0.335	-0.0	-0.0	-0.0	-0.0	-0.0	-0.0	12.666794776916504	-4.932750701904297	-753.8401489257812	-0.0	-0.0	-0.0	-0.0	-0.0	-0.0	264339.40625	-24633.353515625	3340.88525390625
0.3355	-0.0	-0.0	-0.0	-0.0	-0.0	-0.0	12.443448066711426	-4.769371032714844	-753.69091796875	-0.0	-0.0	-0.0	-0.0	-0.0	-0.0	264190.34375	-24379.55078125	3311.176513671875
0.336	-0.0	-0.0	-0.0	-0.0	-0.0	-0.0	12.60179328918457	-4.908749580383301	-753.8920288085938	-0.0	-0.0	-0.0	-0.0	-0.0	-0.0	263938.03125	-24704.27734375	3302.0498046875
0.3365	-0.0	-0.0	-0.0	-0.0	-0.0	-0.0	12.39621925354004	-4.039609432220459	-754.1122436523438	-0.0	-0.0	-0.0	-0.0	-0.0	-0.0	264251.5	-24381.984375	3270.83447265625
0.337	-0.0	-0.0	-0.0	-0.0	-0.0	-0.0	12.508220672607422	-3.263659715652466	-757.6986694335938	-0.0	-0.0	-0.0	-0.0	-0.0	-0.0	264972.125	-24350.4453125	3088.333984375
0.3375	-0.0	-0.0	-0.0	-0.0	-0.0	-0.0	12.578384399414062	-2.524397850036621	-756.6845703125	-0.0	-0.0	-0.0	-0.0	-0.0	-0.0	265340.5	-24196.662109375	3082.306396484375
0.338	-0.0	-0.0	-0.0	-0.0	-0.0	-0.0	12.168180465698242	-2.244833946228028	-759.75390625	-0.0	-0.0	-0.0	-0.0	-0.0	-0.0	265830.59375	-23869.48828125	2937.416748046875
0.3385	-0.0	-0.0	-0.0	-0.0	-0.0	-0.0	11.140729904174805	-2.424699544906616	-761.3546752929688	-0.0	-0.0	-0.0	-0.0	-0.0	-0.0	266119.3125	-23622.916015625	2564.572265625
0.339	-0.0	-0.0	-0.0	-0.0	-0.0	-0.0	10.376038551330566	-2.9329018592834477	-761.0182495117188	-0.0	-0.0	-0.0	-0.0	-0.0	-0.0	266631.84375	-23350.3359375	2076.9755859375
0.3395	-0.0	-0.0	-0.0	-0.0	-0.0	-0.0	9.439931869506836	-3.4627599716186523	-762.8351440429688	-0.0	-0.0	-0.0	-0.0	-0.0	-0.0	266757.9375	-23297.38671875	1874.6685791015625
0.34	-0.0	-0.0	-0.0	-0.0	-0.0	-0.0	8.536931037902832	-3.675652503967285	-766.2345581054688	-0.0	-0.0	-0.0	-0.0	-0.0	-0.0	267300.125	-22985.50390625	1481.4193115234375
0.3405	-0.0	-0.0	-0.0	-0.0	-0.0	-0.0	7.52223014831543	-4.644835948944092	-768.2767333984375	-0.0	-0.0	-0.0	-0.0	-0.0	-0.0	268040.6875	-22751.75	1208.975830078125
0.341	-0.0	-0.0	-0.0	-0.0	-0.0	-0.0	6.776388168334961	-4.5566582679748535	-769.2449951171875	-0.0	-0.0	-0.0	-0.0	-0.0	-0.0	268590.21875	-22803.263671875	1053.3958740234375
0.3415	-0.0	-0.0	-0.0	-0.0	-0.0	-0.0	6.208136081695557	-4.5927276611328125	-770.7781372070312	-0.0	-0.0	-0.0	-0.0	-0.0	-0.0	268633.71875	-22450.81640625	613.5701293945312
0.342	-0.0	-0.0	-0.0	-0.0	-0.0	-0.0	4.791651248931885	-4.718146800994873	-772.38916015625	-0.0	-0.0	-0.0	-0.0	-0.0	-0.0	268932.65625	-22540.486328125	186.21131896972656
0.3425	-0.0	-0.0	-0.0	-0.0	-0.0	-0.0	3.921207904815674	-4.787225723266602	-772.1154174804688	-0.0	-0.0	-0.0	-0.0	-0.0	-0.0	268975.53125	-22541.56640625	72.8943099975586
0.343	-0.0	-0.0	-0.0	-0.0	-0.0	-0.0	3.86821961402893	-5.069237232208252	-773.58203125	-0.0	-0.0	-0.0	-0.0	-0.0	-0.0	269230.15625	-22626.28515625	137.82235717773438
0.3435	-0.0	-0.0	-0.0	-0.0	-0.0	-0.0	3.850189447402954	-4.521789073944092	-775.8135375976562	-0.0	-0.0	-0.0	-0.0	-0.0	-0.0	269464.8125	-22754.271484375	96.42012786865234
0.34400000000000003	-0.0	-0.0	-0.0	-0.0	-0.0	-0.0	4.222611904144287	-4.645699501037598	-775.6751708984375	-0.0	-0.0	-0.0	-0.0	-0.0	-0.0	269696.34375	-23059.42578125	144.2069091796875
0.34450000000000003	-0.0	-0.0	-0.0	-0.0	-0.0	-0.0	4.4001288414001465	-4.080425262451172	-776.4428100585938	-0.0	-0.0	-0.0	-0.0	-0.0	-0.0	270312.6875	-23398.478515625	399.6281127929688
0.34500000000000003	-0.0	-0.0	-0.0	-0.0	-0.0	-0.0	4.896726131439209	-4.0452423095703125	-778.8878784179688	-0.0	-0.0	-0.0	-0.0	-0.0	-0.0	270669.28125	-23859.30859375	619.503662109375
0.34550000000000003	-0.0	-0.0	-0.0	-0.0	-0.0	-0.0	5.339447498321533	-4.557711601257324	-780.2154541015625	-0.0	-0.0	-0.0	-0.0	-0.0	-0.0	270830.125	-23659.06640625	809.44921875
0.34600000000000003	-0.0	-0.0	-0.0	-0.0	-0.0	-0.0	4.6666412353515625	-4.6276044845581055	-781.4102783203125	-0.0	-0.0	-0.0	-0.0	-0.0	-0.0	270662.8125	-23521.919921875	482.62506103515625
0.34650000000000003	-0.0	-0.0	-0.0	-0.0	-0.0	-0.0	3.2473933696746826	-4.204688549041748	-778.3219604492188	-0.0	-0.0	-0.0	-0.0	-0.0	-0.0	270598.125	-23439.017578125	72.72549438476562
0.34700000000000003	-0.0	-0.0	-0.0	-0.0	-0.0	-0.0	1.2941664457321167	-3.2662248611450195	-781.6820068359375	-0.0	-0.0	-0.0	-0.0	-0.0	-0.0	271195.90625	-23220.05859375	-593.1900024414062
0.34750000000000003	-0.0	-0.0	-0.0	-0.0	-0.0	-0.0	0.5322647094726562	-2.701420545578003	-780.7030029296875	-0.0	-0.0	-0.0	-0.0	-0.0	-0.0	271837.0625	-23065.236328125	-1085.6007080078125
0.34800000000000003	-0.0	-0.0	-0.0	-0.0	-0.0	-0.0	-0.4608266949653625	-1.6265209913253784	-784.6116943359375	-0.0	-0.0	-0.0	-0.0	-0.0	-0.0	272651.46875	-22943.21875	-1507.0462646484375
0.34850000000000003	-0.0	-0.0	-0.0	-0.0	-0.0	-0.0	-1.0645294189453125	-0.495631605386734	-785.7843017578125	-0.0	-0.0	-0.0	-0.0	-0.0	-0.0	273671.65625	-23049.099609375	-1827.6688232421875
0.34900000000000003	-0.0	-0.0	-0.0	-0.0	-0.0	-0.0	-1.1875449419021606	-0.0771166980266571	-790.8958740234375	-0.0	-0.0	-0.0	-0.0	-0.0	-0.0	274799.84375	-23205.0234375	-1952.9552001953125
0.34950000000000003	-0.0	-0.0	-0.0	-0.0	-0.0	-0.0	-0.8326059579849243	1.1481819152832031	-792.4269409179688	-0.0	-0.0	-0.0	-0.0	-0.0	-0.0	276291.9375	-23346.341796875	-1904.5185546875
0.35000000000000003	-0.0	-0.0	-0.0	-0.0	-0.0	-0.0	-1.300132155418396	1.796829342842102	-797.18017578125	-0.0	-0.0	-0.0	-0.0	-0.0	-0.0	277104.8125	-23218.8125	-2017.6229248046875
0.35050000000000003	-0.0	-0.0	-0.0	-0.0	-0.0	-0.0	-1.4872596263885498	2.271796464920044	-798.2942504882812	-0.0	-0.0	-0.0	-0.0	-0.0	-0.0	278122.90625	-23464.009765625	-2230.958984375
0.35100000000000003	-0.0	-0.0	-0.0	-0.0	-0.0	-0.0	-1.8711087703704836	2.166196346282959	-800.6874389648438	-0.0	-0.0	-0.0	-0.0	-0.0	-0.0	278972.96875	-23321.302734375	-2308.916259765625
0.35150000000000003	-0.0	-0.0	-0.0	-0.0	-0.0	-0.0	-1.91793429851532	1.9006543159484863	-802.1339111328125	-0.0	-0.0	-0.0	-0.0	-0.0	-0.0	279397.09375	-23769.81640625	-2338.70556640625
0.352	-0.0	-0.0	-0.0	-0.0	-0.0	-0.0	-2.078684091567993	1.8500232696533203	-804.6622924804688	-0.0	-0.0	-0.0	-0.0	-0.0	-0.0	280316.65625	-23728.138671875	-2201.76220703125
0.3525	-0.0	-0.0	-0.0	-0.0	-0.0	-0.0	-1.546562433242798	1.7564948797225952	-804.9725341796875	-0.0	-0.0	-0.0	-0.0	-0.0	-0.0	280846.53125	-24072.99609375	-2114.06884765625
0.353	-0.0	-0.0	-0.0	-0.0	-0.0	-0.0	-1.424726128578186	1.9709436893463133	-805.3405151367188	-0.0	-0.0	-0.0	-0.0	-0.0	-0.0	281036.65625	-24379.17578125	-1893.4364013671875
0.3535	-0.0	-0.0	-0.0	-0.0	-0.0	-0.0	-0.5821362733840942	2.1859242916107178	-806.693115234375	-0.0	-0.0	-0.0	-0.0	-0.0	-0.0	281182.53125	-24408.671875	-1790.8189697265625
0.354	-0.0	-0.0	-0.0	-0.0	-0.0	-0.0	-0.7156283855438232	2.0749261379241943	-806.1259155273438	-0.0	-0.0	-0.0	-0.0	-0.0	-0.0	281241.8125	-24990.82421875	-1464.5906982421875
0.3545	-0.0	-0.0	-0.0	-0.0	-0.0	-0.0	-0.1774215698242187	1.5671452283859253	-807.5227661132812	-0.0	-0.0	-0.0	-0.0	-0.0	-0.0	281485.875	-25029.818359375	-1286.31103515625
0.355	-0.0	-0.0	-0.0	-0.0	-0.0	-0.0	0.8706642389297485	1.550583004951477	-808.0015869140625	-0.0	-0.0	-0.0	-0.0	-0.0	-0.0	281841.78125	-25659.087890625	-929.5692749023438
